<svg width="23" height="23" viewBox="0 0 23 23" fill="none" xmlns="http://www.w3.org/2000/svg">
  <path
    d="M22.7557 1.87553L22.7576 1.87365L21.1381 0.245259C21.0023 0.0956042 20.8087 0 20.5911 0C20.5868 0 20.5831 0.00124964 20.5787 0.00124964H17.8096C17.8056 0.00124964 17.8019 0.00124964 17.7978 0.00124964H17.7546V0.00874806C17.6657 0.0178086 17.5794 0.0487393 17.5125 0.116225C17.4457 0.183398 17.4146 0.270254 17.4059 0.359609H17.3972V8.26602H17.3944C17.3798 8.66499 17.056 8.98461 16.6554 8.98461H16.5631H5.94804V8.98086C5.56454 8.96149 5.25966 8.65281 5.24599 8.26602H5.24319V0.359609H5.22828C5.21243 0.276502 5.17917 0.19527 5.11422 0.129972C5.01757 0.0328052 4.88921 -0.00343696 4.76645 0.00906032V0.00031226H0.741835H0.741525C0.331915 0.00031226 -0.000310563 0.33399 2.18067e-07 0.7464V8.98461V11.9793V22.2542C-0.000310563 22.6663 0.331604 23 0.741835 23H3.09445V22.2542V12.715V12.7144V12.6979V12.6876H3.09725C3.10999 12.337 3.36172 12.0483 3.69395 11.983V11.979H3.73497C3.76854 11.9743 3.80179 11.969 3.83629 11.969H19.1578H19.1848V11.9718C19.573 11.9858 19.8832 12.2973 19.8972 12.6876H19.9V23H22.256C22.6659 23 22.9978 22.6663 22.9978 22.2545V2.44853C22.9981 2.44072 23 2.43353 23 2.42572C23 2.20671 22.9049 2.01175 22.7557 1.87553Z"
    fill="black" />
</svg>